<?xml version="1.0" encoding="UTF-8" standalone="no"?>
<svg
   id="Layer_1"
   data-name="Layer 1"
   viewBox="0 0 24 24"
   width="512"
   height="512"
   version="1.1"
   sodipodi:docname="rocket-lunch.svg"
   inkscape:version="1.3.2 (091e20e, 2023-11-25, custom)"
   xmlns:inkscape="http://www.inkscape.org/namespaces/inkscape"
   xmlns:sodipodi="http://sodipodi.sourceforge.net/DTD/sodipodi-0.dtd"
   xmlns="http://www.w3.org/2000/svg"
   xmlns:svg="http://www.w3.org/2000/svg">
  <defs
     id="defs1" />
  <sodipodi:namedview
     id="namedview1"
     pagecolor="#505050"
     bordercolor="#eeeeee"
     borderopacity="1"
     inkscape:showpageshadow="0"
     inkscape:pageopacity="0"
     inkscape:pagecheckerboard="0"
     inkscape:deskcolor="#505050"
     inkscape:zoom="2.2910156"
     inkscape:cx="256"
     inkscape:cy="256"
     inkscape:window-width="2560"
     inkscape:window-height="1369"
     inkscape:window-x="-8"
     inkscape:window-y="-8"
     inkscape:window-maximized="1"
     inkscape:current-layer="Layer_1" />
  <path
     d="M2.751,15H0V14A7.634,7.634,0,0,1,4.065,7.169a10.975,10.975,0,0,1,3.9-1.09q-.889,1.1-1.783,2.338A40.582,40.582,0,0,0,2.751,15Zm12.832,2.813A40.582,40.582,0,0,1,9,21.249V24h1a7.634,7.634,0,0,0,6.831-4.065,10.975,10.975,0,0,0,1.09-3.9Q16.826,16.92,15.583,17.813ZM24,2.991c-.133,4.353-3.267,8.67-9.582,13.2A34.995,34.995,0,0,1,9,19.063V18.5A3.517,3.517,0,0,0,5.5,15H4.937A34.912,34.912,0,0,1,7.813,9.583C12.332,3.278,16.642.144,20.988,0,23.154,0,24,.885,24,2.991ZM18,8.5a2.5,2.5,0,0,0-5,0A2.5,2.5,0,0,0,18,8.5ZM1.374,23.785c1.126-.2,3.841-.758,4.748-1.664h0a3,3,0,0,0-4.243-4.243C.973,18.785.414,21.5.215,22.626l-.247,1.406Z"
     id="path1" />
  <path
     style="fill:#666666;stroke-width:0.436488"
     d="m 192.05456,397.57633 c 0,-12.81037 -1.45499,-21.19197 -5.3233,-30.66541 -3.84177,-9.40847 -8.50827,-16.56685 -15.62765,-23.97275 -10.94257,-11.38295 -24.03147,-18.56658 -39.59012,-21.7284 -3.73895,-0.75983 -6.90098,-1.01219 -15.28932,-1.22025 l -10.5755,-0.26232 3.83676,-8.72976 C 127.37526,270.29275 153.33645,223.11746 171.6985,197.94714 234.72851,111.5469 294.81125,54.809089 355.08269,24.772298 386.55059,9.090003 420.48545,0.34358941 449.63965,0.40106745 482.0541,0.46497308 500.15458,10.808783 507.80129,33.638469 c 5.85543,17.481732 4.94866,45.631859 -2.41037,74.828711 -16.58331,65.79401 -66.51832,132.33412 -150.5788,200.6514 -12.4595,10.12603 -30.07057,23.60065 -42.76553,32.72086 -19.2207,13.80837 -58.78411,36.27962 -89.42241,50.79019 -8.86184,4.19704 -26.69147,12.24429 -29.46528,13.29888 l -1.10434,0.41988 z M 339.1509,234.15485 c 38.64693,-6.26302 57.6242,-50.33354 35.74438,-83.00845 -2.91497,-4.35316 -9.68852,-11.12671 -14.04168,-14.04168 -15.72114,-10.52721 -35.83631,-12.19742 -52.64486,-4.37122 -24.57599,11.44279 -36.73205,39.27769 -28.42996,65.09878 2.5892,8.05291 6.82064,14.97338 12.88618,21.07521 4.53438,4.5615 8.33702,7.36763 13.67647,10.09245 9.9223,5.06354 21.82928,6.93433 32.80947,5.15491 z"
     id="path2"
     transform="scale(0.046875)" />
  <path
     style="fill:#ff6600;stroke-width:0.436488"
     d="m -0.30834604,511.51756 c 0.13996989,-0.57489 1.45596314,-7.91995 2.92442934,-16.32233 7.0176843,-40.15435 12.9822887,-64.02507 21.2678047,-85.11509 7.563478,-19.25215 14.77773,-29.14764 26.966922,-36.98942 18.605268,-11.96949 41.717184,-13.46586 61.74414,-3.9976 9.62563,4.55077 19.41967,12.87268 25.26541,21.46781 12.93647,19.02077 14.81498,42.63464 5.04096,63.36735 -4.3824,9.29597 -12.22377,18.71151 -19.59356,23.52705 -19.28318,12.59989 -52.099001,22.43962 -106.502986,31.93461 -8.402387,1.46645 -15.7474396,2.78026 -16.32233901,2.91959 -0.92545113,0.22427 -1.01609922,0.13349 -0.79078103,-0.79197 z"
     id="path3"
     transform="scale(0.046875)" />
  <path
     style="fill:#ff0000;stroke-width:0.436488"
     d="m 192.16059,482.80542 0.11221,-29.33607 8.07503,-3.41576 c 43.23398,-18.28808 86.33411,-40.79005 125.06525,-65.29479 10.90227,-6.89774 30.04917,-21.03692 50.93914,-37.6164 2.81571,-2.23471 5.24473,-4.06312 5.39782,-4.06312 0.53292,0 -1.24133,13.60691 -2.89887,22.23175 -5.39962,28.09633 -15.70739,54.86702 -28.49823,74.01378 -24.92559,37.3114 -64.23933,62.75014 -108.53879,70.23217 -8.62942,1.45749 -16.64951,2.01464 -33.06703,2.29716 l -16.69875,0.28736 z"
     id="path4"
     transform="scale(0.046875)" />
  <path
     style="fill:#ff0000;stroke-width:0.436488"
     d="M 0.14855438,303.25288 C 0.52949992,281.3503 1.4960474,272.3312 4.9792162,258.17676 14.709647,218.63554 38.809597,184.27071 72.675192,161.64706 93.32155,147.85443 122.87178,136.94964 152.77067,132.0898 c 7.95518,-1.29306 15.66924,-2.2063 15.98333,-1.89221 0.12209,0.12209 -3.16286,4.5144 -7.29988,9.7607 -9.72735,12.33559 -26.91794,35.31373 -30.81096,41.18408 -3.19665,4.82028 -12.03328,19.14856 -16.82461,27.28048 -19.173303,32.5413 -36.650364,67.2328 -51.23576,101.70162 l -4.063372,9.60273 -29.330649,0.11221 -29.33065127,0.11222 z"
     id="path5"
     transform="scale(0.046875)" />
  <path
     style="fill:#999999;stroke-width:0.436488"
     d="m 191.92554,394.92492 c -0.26278,-12.38223 -0.80579,-16.03155 -3.60661,-24.23848 -7.50118,-21.97987 -25.26694,-39.76169 -46.97295,-47.01544 -7.89907,-2.63973 -11.7293,-3.25559 -23.27607,-3.74261 -5.76164,-0.24301 -10.81633,-0.4859 -11.23265,-0.53976 -0.63145,-0.0817 -0.0808,-1.61752 3.32158,-9.26416 18.22542,-40.96066 42.30534,-84.8177 60.55534,-110.29016 25.74265,-35.93035 54.81698,-70.54081 82.43634,-98.13331 51.28192,-51.232043 100.62774,-82.260217 151.00152,-94.9483049 18.89358,-4.7588932 36.52798,-6.73732742 52.30491,-5.86818001 25.06707,1.38093941 39.93059,9.41392991 48.31217,26.11030991 10.18026,20.279449 8.46091,58.941053 -4.32204,97.185905 -18.27454,54.67499 -58.57555,108.92363 -122.88527,165.41421 -21.39978,18.79787 -55.54608,45.43359 -73.32993,57.20077 -19.99071,13.22743 -43.74026,26.65133 -71.80221,40.58459 -14.53622,7.21749 -36.26271,17.31618 -39.34043,18.28581 -0.92749,0.2922 -0.93003,0.26871 -1.1637,-10.74119 z M 340.1103,234.16344 c 19.41956,-3.39697 35.66413,-17.57877 41.521,-36.24856 3.55169,-11.32163 3.40113,-24.06274 -0.41088,-34.7705 -1.52413,-4.28122 -4.59485,-10.06489 -7.16793,-13.50073 -3.08802,-4.12345 -10.66792,-11.23809 -14.55243,-13.6592 -17.02302,-10.60999 -39.1423,-10.97632 -56.14497,-0.92986 -12.3,7.26775 -21.13235,19.1987 -24.90917,33.64788 -1.30892,5.0076 -1.65102,16.39823 -0.65547,21.82438 1.52655,8.32024 4.58006,15.58861 9.307,22.15376 2.91562,4.04944 9.69019,10.70395 13.43164,13.19359 5.88641,3.91695 13.5525,6.98746 20.65349,8.27237 4.58026,0.82878 14.23704,0.83739 18.92772,0.0169 z"
     id="path6"
     transform="scale(0.046875)" />
</svg>
